<svg width="33" height="32" viewBox="0 0 33 32" fill="none" xmlns="http://www.w3.org/2000/svg">
<path d="M7.02037 23.7383C9.72921 22.2072 12.8587 21.3333 16.1923 21.3333C19.5259 21.3333 22.6554 22.2072 25.3643 23.7383M20.1923 13.3333C20.1923 15.5425 18.4015 17.3333 16.1923 17.3333C13.9832 17.3333 12.1923 15.5425 12.1923 13.3333C12.1923 11.1242 13.9832 9.33333 16.1923 9.33333C18.4015 9.33333 20.1923 11.1242 20.1923 13.3333ZM28.1923 16C28.1923 22.6274 22.8197 28 16.1923 28C9.5649 28 4.19232 22.6274 4.19232 16C4.19232 9.37258 9.5649 4 16.1923 4C22.8197 4 28.1923 9.37258 28.1923 16Z" stroke="white" stroke-width="2" stroke-linecap="round" stroke-linejoin="round"/>
</svg>
