<svg width="32" height="32" viewBox="0 0 32 32" fill="none" xmlns="http://www.w3.org/2000/svg">
<path d="M29.3334 7.73312C28.3311 8.16792 27.2713 8.45534 26.1867 8.58646C27.3309 7.90289 28.1884 6.8275 28.6 5.55979C27.5248 6.19988 26.3477 6.65085 25.12 6.89312C24.2994 6.00322 23.2066 5.41085 22.0131 5.20893C20.8196 5.007 19.5927 5.20694 18.5251 5.77738C17.4574 6.34782 16.6093 7.2565 16.1137 8.36091C15.6181 9.46531 15.5031 10.703 15.7867 11.8798C13.6126 11.7698 11.4859 11.2037 9.54489 10.2183C7.60384 9.23282 5.89182 7.85005 4.52002 6.15979C4.03887 7.00002 3.78605 7.95155 3.78669 8.91979C3.78498 9.81897 4.00564 10.7046 4.42903 11.4979C4.85241 12.2911 5.46538 12.9674 6.21335 13.4665C5.34399 13.4428 4.4932 13.2095 3.73335 12.7865V12.8531C3.73987 14.113 4.18135 15.3319 4.98311 16.3037C5.78487 17.2756 6.89769 17.9406 8.13335 18.1865C7.65769 18.3312 7.16385 18.4075 6.66669 18.4131C6.32254 18.4091 5.97925 18.3779 5.64002 18.3198C5.9919 19.4035 6.67285 20.3507 7.58812 21.0293C8.50339 21.708 9.60745 22.0845 10.7467 22.1065C8.82296 23.6201 6.44786 24.4463 4.00002 24.4531C3.55433 24.4546 3.109 24.4279 2.66669 24.3731C5.16592 25.9868 8.07844 26.8434 11.0534 26.8398C13.1063 26.8611 15.1429 26.4731 17.0442 25.6986C18.9455 24.924 20.6734 23.7783 22.127 22.3285C23.5805 20.8786 24.7306 19.1536 25.5101 17.2543C26.2896 15.355 26.6827 13.3194 26.6667 11.2665V10.5598C27.7129 9.77954 28.6153 8.82302 29.3334 7.73312Z" fill="white"/>
</svg>
