<svg width="52" height="56" viewBox="0 0 52 56" fill="none" xmlns="http://www.w3.org/2000/svg">
<path d="M43.8082 55.689C42.9144 55.689 42.0898 55.6777 41.2657 55.6931C40.7557 55.7027 40.2244 55.5753 39.7586 55.9459C39.647 56.0346 39.4201 55.9875 39.2462 55.9875C26.805 55.9889 14.3639 55.9894 1.92271 55.9874C1.10233 55.9873 0.826333 55.6986 0.822032 54.8438C0.815618 53.5698 0.820358 52.2957 0.820358 51.0216C0.820358 42.6026 0.827564 34.1835 0.807689 25.7646C0.805964 25.0333 1.00993 24.4818 1.54376 23.9852C2.75848 22.8552 3.94648 21.696 5.12935 20.5325C5.65924 20.0112 6.17215 19.469 6.65042 18.9006C6.88201 18.6254 7.14007 18.602 7.4456 18.6079C7.75044 18.6137 7.90841 18.7592 7.91564 19.0626C7.9204 19.2624 7.91745 19.4623 7.91745 19.6622C7.9175 29.1055 7.9175 38.5487 7.9175 47.992C7.9175 48.2618 7.9175 48.5316 7.9175 48.8426C16.389 48.8426 24.8029 48.8426 33.2866 48.8426C33.3076 48.6694 33.35 48.4817 33.3501 48.294C33.3538 43.5473 33.3497 38.8007 33.357 34.0541C33.358 33.4448 33.1107 32.9243 32.7328 32.511C32.0363 31.7492 31.2727 31.0478 30.5225 30.3366C30.1911 30.0224 29.824 29.7459 29.4558 29.4377C29.4558 29.6332 29.4558 29.8944 29.4558 30.1557C29.4558 34.7524 29.4559 39.3492 29.4557 43.9459C29.4557 44.9559 29.2246 45.1879 28.1712 45.1927C26.6223 45.1999 25.0734 45.1946 23.5245 45.1946C20.1519 45.1946 16.7792 45.2038 13.4067 45.185C12.88 45.182 12.3541 45.0514 11.8217 44.979C11.7958 44.7752 11.7745 44.6549 11.766 44.5337C11.7142 43.7937 11.6408 43.0541 11.6244 42.3132C11.614 41.8473 11.6929 41.3797 11.7268 40.9124C11.7448 40.6652 11.7629 40.4172 11.763 40.1696C11.7648 31.8505 11.7645 23.5314 11.7645 15.2123C11.7645 15.1624 11.7645 15.1124 11.7645 15.0624C11.7645 13.8546 11.7594 13.8495 12.5537 13.0615C14.8865 10.7472 17.231 8.44454 19.5571 6.12348C21.3602 4.32426 23.1473 2.50891 24.932 0.691382C25.8117 -0.204441 26.0784 -0.229916 26.9225 0.616065C29.1592 2.85785 31.3865 5.10898 33.6258 7.34818C36.0516 9.77379 38.4899 12.1868 40.9165 14.6115C42.9622 16.6555 44.9917 18.7159 47.0433 20.7539C48.0284 21.7325 49.0573 22.6669 50.047 23.641C50.3797 23.9686 50.6971 24.3303 50.9357 24.7278C51.0758 24.9613 51.0878 25.2959 51.0884 25.5852C51.097 30.1069 51.0945 34.6287 51.0945 39.1505C51.0945 40.2659 51.0945 41.3812 51.0945 42.4966C51.0945 45.0353 51.0832 47.5741 51.0989 50.1127C51.1077 51.5484 51.1636 52.9837 51.1914 54.4193C51.1957 54.6414 51.1863 54.869 51.143 55.0859C50.9964 55.8191 50.7866 55.9863 50.03 55.9878C48.4311 55.9911 46.8318 56.0104 45.2337 55.9751C44.7797 55.965 44.3294 55.789 43.8082 55.689ZM32.4779 15.8614C30.3379 13.7268 28.198 11.5922 26.0013 9.40108C25.2925 10.1036 24.6445 10.7401 24.0027 11.3829C22.5296 12.8584 21.0791 14.3572 19.5798 15.8055C18.8648 16.4963 18.5579 17.2763 18.6711 18.2512C18.7112 18.5964 18.7092 18.9478 18.7093 19.2963C18.7114 25.2905 18.7105 31.2847 18.7119 37.2789C18.7119 37.5423 18.7272 37.8057 18.7364 38.0994C19.4467 38.0994 20.0696 38.111 20.6918 38.0961C21.3025 38.0815 21.9218 38.1623 22.5597 38.0337C22.5597 37.6862 22.5597 37.4132 22.5597 37.1401C22.5597 32.095 22.5657 27.0499 22.55 22.0049C22.5485 21.5242 22.644 21.1279 22.9905 20.7964C23.2936 20.5064 23.5948 20.2144 23.8939 19.9203C24.7573 19.0715 25.6163 18.2183 26.4831 17.3729C26.8536 17.0114 27.1437 16.9952 27.519 17.3544C28.2189 18.024 28.9031 18.7104 29.5826 19.4009C30.6058 20.4406 31.6063 21.5029 32.6394 22.5324C34.9535 24.8385 37.2711 27.1412 39.6129 29.419C40.1031 29.8958 40.2627 30.4031 40.2607 31.0696C40.2412 37.3884 40.2491 43.7073 40.2491 50.0262C40.2491 50.2948 40.2491 50.5635 40.2491 50.8494C41.5445 50.8494 42.7759 50.8494 44.0484 50.8494C44.0484 50.5613 44.0484 50.3156 44.0484 50.0699C44.0484 46.1487 44.0484 42.2275 44.0484 38.3063C44.0484 34.9346 44.0465 31.5629 44.0513 28.1912C44.0518 27.8333 43.9958 27.5613 43.7022 27.2731C42.666 26.2558 41.7037 25.1637 40.6827 24.1302C37.9787 21.393 35.2586 18.6717 32.4779 15.8614Z" fill="#FFC72C"/>
</svg>
