<svg width="60" height="60" viewBox="0 0 60 60" fill="none" xmlns="http://www.w3.org/2000/svg">
<rect x="1" y="1" width="58" height="58" rx="3" fill="#FFC72C" fill-opacity="0.08"/>
<path d="M41 23H21C20.7348 23 20.4804 22.8946 20.2929 22.7071C20.1054 22.5196 20 22.2652 20 22C20 21.7348 20.1054 21.4804 20.2929 21.2929C20.4804 21.1054 20.7348 21 21 21H38C38.2652 21 38.5196 20.8946 38.7071 20.7071C38.8946 20.5196 39 20.2652 39 20C39 19.7348 38.8946 19.4804 38.7071 19.2929C38.5196 19.1054 38.2652 19 38 19H21C20.2044 19 19.4413 19.3161 18.8787 19.8787C18.3161 20.4413 18 21.2044 18 22V38C18 38.7956 18.3161 39.5587 18.8787 40.1213C19.4413 40.6839 20.2044 41 21 41H41C41.5304 41 42.0391 40.7893 42.4142 40.4142C42.7893 40.0391 43 39.5304 43 39V25C43 24.4696 42.7893 23.9609 42.4142 23.5858C42.0391 23.2107 41.5304 23 41 23ZM41 39H21C20.7348 39 20.4804 38.8946 20.2929 38.7071C20.1054 38.5196 20 38.2652 20 38V24.8287C20.3211 24.9426 20.6593 25.0005 21 25H41V39ZM35 31.5C35 31.2033 35.088 30.9133 35.2528 30.6666C35.4176 30.42 35.6519 30.2277 35.926 30.1142C36.2001 30.0007 36.5017 29.9709 36.7926 30.0288C37.0836 30.0867 37.3509 30.2296 37.5607 30.4393C37.7704 30.6491 37.9133 30.9164 37.9712 31.2074C38.0291 31.4983 37.9993 31.7999 37.8858 32.074C37.7723 32.3481 37.58 32.5824 37.3334 32.7472C37.0867 32.912 36.7967 33 36.5 33C36.1022 33 35.7206 32.842 35.4393 32.5607C35.158 32.2794 35 31.8978 35 31.5Z" fill="#FFC72C"/>
<rect x="1" y="1" width="58" height="58" rx="3" stroke="#FFC72C" stroke-width="2"/>
</svg>
