<svg width="32" height="32" viewBox="0 0 32 32" fill="none" xmlns="http://www.w3.org/2000/svg">
<g id="Icon/Outline/camera">
<g id="Icon">
<path d="M4 11.9997C4 10.5269 5.19391 9.33301 6.66667 9.33301H7.90618C8.79779 9.33301 9.6304 8.8874 10.125 8.14554L11.2084 6.52047C11.7029 5.77861 12.5355 5.33301 13.4272 5.33301H18.5728C19.4645 5.33301 20.2971 5.77861 20.7916 6.52047L21.875 8.14554C22.3696 8.88741 23.2022 9.33301 24.0938 9.33301H25.3333C26.8061 9.33301 28 10.5269 28 11.9997V23.9997C28 25.4724 26.8061 26.6663 25.3333 26.6663H6.66667C5.19391 26.6663 4 25.4724 4 23.9997V11.9997Z" stroke="white" stroke-width="2" stroke-linecap="round" stroke-linejoin="round"/>
<path d="M20 17.333C20 19.5421 18.2091 21.333 16 21.333C13.7909 21.333 12 19.5421 12 17.333C12 15.1239 13.7909 13.333 16 13.333C18.2091 13.333 20 15.1239 20 17.333Z" stroke="white" stroke-width="2" stroke-linecap="round" stroke-linejoin="round"/>
</g>
</g>
</svg>
