<svg width="40" height="40" viewBox="0 0 40 40" fill="none" xmlns="http://www.w3.org/2000/svg">
<g id="ic:round-discord">
<path id="Vector" d="M32.1175 8.88374C29.9008 7.8504 27.5008 7.1004 25.0008 6.66707C24.9789 6.66637 24.9571 6.67048 24.937 6.67912C24.9168 6.68776 24.8988 6.70071 24.8842 6.71707C24.5842 7.26707 24.2342 7.98374 24.0008 8.53374C21.3492 8.13374 18.6525 8.13374 16.0008 8.53374C15.7675 7.96707 15.4175 7.26707 15.1008 6.71707C15.0842 6.68374 15.0342 6.66707 14.9842 6.66707C12.4842 7.1004 10.1008 7.8504 7.86751 8.88374C7.85085 8.88374 7.83418 8.9004 7.81751 8.91707C3.28418 15.7004 2.03418 22.3004 2.65085 28.8337C2.65085 28.8671 2.66751 28.9004 2.70085 28.9171C5.70085 31.1171 8.58418 32.4504 11.4342 33.3337C11.4842 33.3504 11.5342 33.3337 11.5508 33.3004C12.2175 32.3837 12.8175 31.4171 13.3342 30.4004C13.3675 30.3337 13.3342 30.2671 13.2675 30.2504C12.3175 29.8837 11.4175 29.4504 10.5342 28.9504C10.4675 28.9171 10.4675 28.8171 10.5175 28.7671C10.7008 28.6337 10.8842 28.4837 11.0675 28.3504C11.1008 28.3171 11.1508 28.3171 11.1842 28.3337C16.9175 30.9504 23.1008 30.9504 28.7675 28.3337C28.8008 28.3171 28.8508 28.3171 28.8842 28.3504C29.0675 28.5004 29.2508 28.6337 29.4342 28.7837C29.5008 28.8337 29.5008 28.9337 29.4175 28.9671C28.5508 29.4837 27.6342 29.9004 26.6842 30.2671C26.6175 30.2837 26.6008 30.3671 26.6175 30.4171C27.1508 31.4337 27.7508 32.4004 28.4008 33.3171C28.4508 33.3337 28.5008 33.3504 28.5508 33.3337C31.4175 32.4504 34.3008 31.1171 37.3008 28.9171C37.3342 28.9004 37.3508 28.8671 37.3508 28.8337C38.0842 21.2837 36.1342 14.7337 32.1842 8.91707C32.1675 8.9004 32.1508 8.88374 32.1175 8.88374ZM14.2008 24.8504C12.4842 24.8504 11.0508 23.2671 11.0508 21.3171C11.0508 19.3671 12.4508 17.7837 14.2008 17.7837C15.9675 17.7837 17.3675 19.3837 17.3508 21.3171C17.3508 23.2671 15.9508 24.8504 14.2008 24.8504ZM25.8175 24.8504C24.1008 24.8504 22.6675 23.2671 22.6675 21.3171C22.6675 19.3671 24.0675 17.7837 25.8175 17.7837C27.5842 17.7837 28.9842 19.3837 28.9675 21.3171C28.9675 23.2671 27.5842 24.8504 25.8175 24.8504Z" fill="white"/>
</g>
</svg>
