<svg width="33" height="32" viewBox="0 0 33 32" fill="none" xmlns="http://www.w3.org/2000/svg">
<g id="Icon/Outline/user-circle">
<path id="Icon" d="M7.02141 23.7383C9.73025 22.2072 12.8598 21.3333 16.1934 21.3333C19.527 21.3333 22.6565 22.2072 25.3653 23.7383M20.1934 13.3333C20.1934 15.5425 18.4025 17.3333 16.1934 17.3333C13.9842 17.3333 12.1934 15.5425 12.1934 13.3333C12.1934 11.1242 13.9842 9.33333 16.1934 9.33333C18.4025 9.33333 20.1934 11.1242 20.1934 13.3333ZM28.1934 16C28.1934 22.6274 22.8208 28 16.1934 28C9.56594 28 4.19336 22.6274 4.19336 16C4.19336 9.37258 9.56594 4 16.1934 4C22.8208 4 28.1934 9.37258 28.1934 16Z" stroke="white" stroke-width="2" stroke-linecap="round" stroke-linejoin="round"/>
</g>
</svg>
