<svg width="32" height="32" viewBox="0 0 32 32" fill="none" xmlns="http://www.w3.org/2000/svg">
<g id="uil:twitter">
<path id="Vector" d="M29.3327 7.73361C28.3305 8.16841 27.2706 8.45583 26.186 8.58695C27.3302 7.90337 28.1877 6.82799 28.5994 5.56028C27.5241 6.20036 26.347 6.65134 25.1194 6.89361C24.2987 6.00371 23.206 5.41134 22.0124 5.20941C20.8189 5.00749 19.5921 5.20742 18.5244 5.77787C17.4567 6.34831 16.6086 7.25699 16.113 8.36139C15.6174 9.4658 15.5024 10.7035 15.786 11.8803C13.6119 11.7703 11.4853 11.2042 9.54422 10.2188C7.60317 9.23331 5.89114 7.85054 4.51935 6.16028C4.0382 7.0005 3.78537 7.95204 3.78602 8.92028C3.78431 9.81946 4.00497 10.7051 4.42836 11.4984C4.85174 12.2916 5.46471 12.9679 6.21268 13.4669C5.34332 13.4433 4.49253 13.21 3.73268 12.7869V12.8536C3.7392 14.1135 4.18067 15.3324 4.98244 16.3042C5.7842 17.2761 6.89702 17.9411 8.13268 18.1869C7.65702 18.3317 7.16318 18.408 6.66602 18.4136C6.32187 18.4096 5.97858 18.3784 5.63935 18.3203C5.99123 19.404 6.67218 20.3511 7.58745 21.0298C8.50272 21.7085 9.60678 22.085 10.746 22.1069C8.82229 23.6206 6.44719 24.4468 3.99935 24.4536C3.55366 24.4551 3.10833 24.4284 2.66602 24.3736C5.16525 25.9873 8.07777 26.8439 11.0527 26.8403C13.1056 26.8616 15.1422 26.4736 17.0435 25.6991C18.9448 24.9245 20.6727 23.7788 22.1263 22.3289C23.5799 20.8791 24.73 19.1541 25.5094 17.2548C26.2889 15.3555 26.6821 13.3199 26.666 11.2669V10.5603C27.7123 9.78003 28.6146 8.82351 29.3327 7.73361Z" fill="white"/>
</g>
</svg>
